<?xml version="1.0" encoding="utf-8"?>
<!-- Generator: Adobe Illustrator 16.0.0, SVG Export Plug-In . SVG Version: 6.00 Build 0)  -->
<!DOCTYPE svg PUBLIC "-//W3C//DTD SVG 1.1//EN" "http://www.w3.org/Graphics/SVG/1.1/DTD/svg11.dtd">
<svg version="1.1" id="face-icon" xmlns="http://www.w3.org/2000/svg" xmlns:xlink="http://www.w3.org/1999/xlink" x="0px" y="0px"
	 width="800px" height="800px" viewBox="0 0 800 800" enable-background="new 0 0 800 800" xml:space="preserve" class="face-icon">
<defs>
	<circle id="SVGID_1_" cx="414.562" cy="379.312" r="338.85"/>
</defs>
<clipPath id="SVGID_2_">
	<use xlink:href="#SVGID_1_"  overflow="visible"/>
</clipPath>
<g id="Circle" clip-path="url(#SVGID_2_)">
	<circle fill="#C1C1C0" cx="415.671" cy="381.227" r="339.572"/>
</g>
<g id="Suit_and_Tie" clip-path="url(#SVGID_2_)">
	<g id="Suit">
		<polygon id="Shirt" fill="#828282" points="527.122,453.241 417.123,453.241 302.797,453.241 242.717,799 302.797,799 
			417.123,799 531.45,799 590.428,799 		"/>
		<polygon fill="#B2B3B3" points="479.049,537.754 453.732,535.971 453.732,574.326 479.049,585.029 504.364,574.326 
			504.364,535.971 		"/>
	</g>
	<g id="Tie">
		<polygon points="420.446,509.779 430.849,706 395.239,706 405.5,509.779 		"/>
		<polygon fill="#101010" points="386.495,473 386.495,493.937 413,518.333 439.943,493.937 439.943,473 		"/>
	</g>
</g>
<g id="Clothes" clip-path="url(#SVGID_2_)">
	<polygon fill="#E0E0E0" points="353.667,453.241 413,478 472.334,453.241 	"/>
	<polygon fill="#FFFFFF" points="353.667,453.241 378.428,500.186 413,478 	"/>
	<polygon id="Right_1_" fill="#FFFFFF" points="472.333,453.241 447.572,500.186 413,478 	"/>
</g>
<g id="Bowtie" display="none" clip-path="url(#SVGID_2_)">
	<polygon id="BowTie" display="inline" fill="#191919" points="413,481.439 371.171,467.751 371.171,500.62 413,489.663 
		454.83,500.62 454.83,467.751 	"/>
	<rect x="405.407" y="476.192" display="inline" fill="#191919" width="15.186" height="18.377"/>
	<g id="Tux" display="inline">
		<polygon fill="#1E1E1E" points="413,662.333 413,780 319,780 244,500.186 353.667,453.241 		"/>
		<polygon fill="#1E1E1E" points="413,662.333 413,780 507,780 582,500.186 472.333,453.241 		"/>
		<polygon fill="#4C4C4D" points="336.5,517 347.25,495.75 322,492 353.667,453.241 413,662.333 		"/>
		<polygon fill="#4C4C4D" points="488.736,517 477.986,495.75 503.236,492 471.569,453.241 412.236,662.333 		"/>
		<circle fill="#1E1E1E" cx="413" cy="557.787" r="5.88"/>
		<circle fill="#1E1E1E" cx="413" cy="616.621" r="5.88"/>
		<rect x="477.855" y="563.083" width="56.763" height="9"/>
	</g>
</g>
<g id="Ears" clip-path="url(#SVGID_2_)">
	<path fill="#EEEEEE" d="M539.167,268.633l0.002,0.347c10.084,1.775,17.754,10.559,17.754,21.153
		c0,10.506-7.541,19.239-17.502,21.114l0.002,0.386h-56l-0.256-43H539.167z"/>
	<path fill="#EEEEEE" d="M284.256,268.633l-0.002,0.347c-10.085,1.775-17.754,10.559-17.754,21.153
		c0,10.506,7.541,19.239,17.502,21.114L284,311.633h56l0.257-43H284.256z"/>
	<rect id="Neck" x="353.667" y="408.908" fill="#E0E0E0" width="118.667" height="44.333"/>
</g>
<g id="Layer_1" clip-path="url(#SVGID_2_)">
	<path fill="#EEEEEE" d="M414.339,435.991H402.55c-39.084-3.333-69.828-25.449-83.131-41.333c-16.75-20-26.057-53.333-26.057-85
		v-15.667V185.658h238.23v108.333v15.667c0,31.667-9.306,65-26.057,85c-13.304,15.884-44.047,38-83.132,41.333h-11.788"/>
	<polyline stroke="#000000" stroke-miterlimit="10" points="307.794,225.586 343.472,206.74 343.552,206.69 445.617,192.702 
		508.7,214.58 527.797,261.224 531.592,289.493 535.935,213.919 541,182.555 493.388,125.317 410.254,126.06 327.514,146.014 
		280.347,185.501 293.362,289.493 	"/>
</g>
<g id="Mouth" clip-path="url(#SVGID_2_)">
	<polygon display="none" fill="#EEEEEE" stroke="#000000" stroke-miterlimit="10" points="456.426,369.192 459.5,351.75 
		407.835,364.288 364,360 365.75,371.5 408.477,373.5 	"/>
	<path display="none" fill="none" stroke="#232323" stroke-width="5" stroke-miterlimit="10" d="M470.404,365.5
		c0,0-20.159,24.5-58.288,24.5h1.422c-38.129,0-58.288-24.5-58.288-24.5"/>
	<polygon display="none" fill="#FFFFFF" points="450.332,379.5 370.136,379.5 368.412,369.549 456.375,360.705 	"/>
	<polygon fill="#828282" points="362.346,357.893 411.398,389.083 453.732,383.5 	"/>
</g>
<g id="Eyes" clip-path="url(#SVGID_2_)">
	<circle cx="377.854" cy="293.133" r="13.146"/>
	<circle fill="#FFFFFF" cx="382.94" cy="287.906" r="6.06"/>
	<circle cx="448.333" cy="293.133" r="13.146"/>
	<circle fill="#FFFFFF" cx="453.076" cy="288.25" r="6.404"/>
</g>
<g id="Glasses" display="none" clip-path="url(#SVGID_2_)">
	<polyline display="inline" fill="none" stroke="#000000" stroke-width="5" stroke-miterlimit="10" points="294.205,263.781 
		321.163,280.908 407.191,280.908 417.147,280.908 506.176,280.908 530.135,263.781 	"/>
	
		<rect x="322" y="277.908" display="inline" stroke="#000000" stroke-width="3" stroke-miterlimit="10" width="75.5" height="32.426"/>
	
		<rect x="428.839" y="277.908" display="inline" stroke="#000000" stroke-width="3" stroke-miterlimit="10" width="75.5" height="32.426"/>
</g>
<g id="Monocale" display="none" clip-path="url(#SVGID_2_)">
	
		<circle display="inline" fill="none" stroke="#000000" stroke-width="3" stroke-miterlimit="10" cx="376.88" cy="293.133" r="22.353"/>
	<g display="inline">
		<g>
			<g>
				<g>
					<g>
						<path d="M375.803,577.568l3.514-0.529c0,0-0.075-0.588-0.187-1.471c-0.056-0.441-0.122-0.956-0.192-1.508
							c-0.042-0.554-0.088-1.146-0.134-1.736c-0.113-1.182-0.144-2.368-0.158-3.259c-0.023-0.89-0.038-1.482-0.038-1.482h-3.554
							c0,0,0.016,0.626,0.039,1.565c0.016,0.939,0.049,2.191,0.167,3.439c0.048,0.624,0.097,1.249,0.142,1.834
							c0.074,0.583,0.143,1.127,0.202,1.593C375.724,576.947,375.803,577.568,375.803,577.568z"/>
						<path d="M379.682,591.953l3.306-1.303c0,0-0.217-0.551-0.544-1.379c-0.284-0.843-0.662-1.966-1.041-3.09
							c-0.316-1.143-0.662-2.278-0.876-3.141c-0.2-0.867-0.333-1.444-0.333-1.444l-3.465,0.787c0,0,0.141,0.611,0.353,1.526
							c0.228,0.912,0.59,2.112,0.927,3.319c0.4,1.188,0.8,2.376,1.1,3.267C379.453,591.37,379.682,591.953,379.682,591.953z"/>
						<path d="M386.657,605.115l2.933-2.008c0,0-0.086-0.12-0.236-0.332c-0.14-0.219-0.34-0.531-0.58-0.905
							c-0.479-0.749-1.135-1.738-1.706-2.779c-0.295-0.514-0.591-1.028-0.868-1.51c-0.253-0.495-0.49-0.957-0.692-1.354
							c-0.406-0.791-0.676-1.319-0.676-1.319l-3.201,1.545c0,0,0.286,0.558,0.713,1.395c0.215,0.418,0.465,0.905,0.733,1.429
							c0.292,0.509,0.604,1.053,0.916,1.596c0.604,1.099,1.295,2.145,1.802,2.937c0.254,0.395,0.465,0.725,0.613,0.955
							C386.566,604.987,386.657,605.115,386.657,605.115z"/>
						<path d="M396.393,616.39l2.415-2.606c0,0-0.429-0.41-1.073-1.023c-0.661-0.597-1.459-1.475-2.282-2.329
							c-0.827-0.851-1.566-1.78-2.16-2.442c-0.298-0.331-0.521-0.628-0.681-0.831c-0.161-0.204-0.252-0.321-0.252-0.321
							l-2.777,2.218c0,0,0.097,0.123,0.266,0.339c0.17,0.215,0.406,0.527,0.719,0.878c0.626,0.699,1.41,1.68,2.282,2.579
							c0.868,0.903,1.713,1.829,2.41,2.46C395.939,615.958,396.393,616.39,396.393,616.39z"/>
						<path d="M408.384,625.225l1.776-3.078c0,0-0.514-0.297-1.284-0.741c-0.745-0.486-1.755-1.108-2.737-1.772
							c-0.96-0.697-1.949-1.354-2.644-1.91c-0.7-0.55-1.166-0.916-1.166-0.916l-2.218,2.776c0,0,0.493,0.388,1.231,0.968
							c0.734,0.587,1.778,1.283,2.793,2.018c1.038,0.701,2.104,1.36,2.893,1.872C407.842,624.911,408.384,625.225,408.384,625.225z"
							/>
						<path d="M422.039,631.187l1.043-3.397c0,0-0.565-0.176-1.407-0.465c-0.844-0.281-1.97-0.653-3.064-1.11
							c-0.551-0.219-1.103-0.438-1.619-0.643c-0.506-0.229-0.979-0.442-1.384-0.626c-0.811-0.367-1.351-0.611-1.351-0.611
							l-1.544,3.2c0,0,0.57,0.259,1.427,0.647c0.428,0.193,0.928,0.419,1.463,0.661c0.546,0.217,1.128,0.448,1.71,0.68
							c1.158,0.481,2.348,0.877,3.239,1.174C421.441,631.001,422.039,631.186,422.039,631.187z"/>
						<path d="M436.683,633.911l0.258-3.545c0,0-0.591-0.044-1.479-0.111c-0.886-0.08-2.06-0.254-3.236-0.396
							c-1.171-0.185-2.336-0.411-3.212-0.562c-0.867-0.196-1.445-0.327-1.445-0.327l-0.788,3.465c0,0,0.611,0.139,1.527,0.346
							c0.926,0.16,2.157,0.398,3.395,0.594c1.243,0.15,2.483,0.332,3.419,0.417C436.058,633.863,436.683,633.911,436.683,633.911z"
							/>
					</g>
				</g>
				<g>
					<g>
						<path d="M451.568,633.361l-0.529-3.514c0,0-0.588,0.074-1.471,0.186c-0.441,0.057-0.956,0.122-1.508,0.192
							c-0.555,0.043-1.146,0.088-1.737,0.134c-1.182,0.113-2.367,0.144-3.258,0.158c-0.89,0.022-1.482,0.038-1.482,0.038v3.554
							c0,0,0.626-0.016,1.564-0.039c0.939-0.016,2.191-0.049,3.44-0.167c0.624-0.049,1.249-0.097,1.834-0.143
							c0.583-0.073,1.127-0.143,1.593-0.201C450.947,633.44,451.568,633.361,451.568,633.361z"/>
						<path d="M465.953,629.482l-1.303-3.307c0,0-0.552,0.218-1.379,0.545c-0.843,0.283-1.967,0.662-3.09,1.04
							c-1.143,0.317-2.278,0.662-3.141,0.877c-0.867,0.2-1.444,0.333-1.444,0.333l0.787,3.466c0,0,0.61-0.142,1.526-0.353
							c0.912-0.228,2.112-0.591,3.319-0.928c1.188-0.399,2.375-0.8,3.267-1.1C465.37,629.712,465.953,629.482,465.953,629.482z"/>
						<path d="M479.115,622.508l-2.008-2.932c0,0-0.12,0.085-0.332,0.235c-0.219,0.14-0.531,0.34-0.905,0.58
							c-0.749,0.479-1.738,1.136-2.779,1.706c-0.514,0.295-1.028,0.591-1.511,0.867c-0.494,0.254-0.956,0.49-1.353,0.692
							c-0.791,0.406-1.319,0.677-1.319,0.677l1.544,3.2c0,0,0.559-0.285,1.395-0.713c0.419-0.215,0.906-0.465,1.429-0.732
							c0.51-0.293,1.054-0.604,1.597-0.917c1.099-0.604,2.145-1.295,2.936-1.802c0.396-0.254,0.726-0.465,0.956-0.613
							C478.987,622.599,479.115,622.508,479.115,622.508z"/>
						<path d="M490.39,612.772l-2.606-2.415c0,0-0.409,0.43-1.023,1.073c-0.597,0.661-1.475,1.46-2.329,2.282
							c-0.851,0.826-1.78,1.566-2.442,2.16c-0.331,0.298-0.628,0.521-0.831,0.682c-0.204,0.16-0.32,0.252-0.32,0.252l2.217,2.776
							c0,0,0.123-0.097,0.339-0.266c0.215-0.17,0.527-0.406,0.878-0.72c0.699-0.626,1.68-1.409,2.579-2.281
							c0.903-0.868,1.829-1.713,2.46-2.41C489.958,613.227,490.39,612.772,490.39,612.772z"/>
						<path d="M499.225,600.781l-3.077-1.776c0,0-0.297,0.514-0.741,1.284c-0.486,0.745-1.109,1.755-1.772,2.738
							c-0.697,0.959-1.354,1.948-1.911,2.644c-0.55,0.699-0.916,1.165-0.916,1.165l2.777,2.218c0,0,0.387-0.492,0.967-1.231
							c0.587-0.734,1.283-1.777,2.019-2.792c0.7-1.038,1.359-2.104,1.872-2.893C498.911,601.324,499.225,600.781,499.225,600.781z"
							/>
						<path d="M505.188,587.126l-3.397-1.042c-0.001-0.001-0.176,0.565-0.465,1.407c-0.281,0.844-0.653,1.97-1.11,3.064
							c-0.219,0.551-0.438,1.102-0.643,1.618c-0.229,0.507-0.443,0.979-0.626,1.385c-0.367,0.81-0.612,1.35-0.612,1.35l3.201,1.545
							c0,0,0.259-0.571,0.647-1.427c0.193-0.429,0.419-0.928,0.66-1.463c0.218-0.546,0.449-1.128,0.681-1.711
							c0.481-1.157,0.876-2.347,1.174-3.238C505.001,587.725,505.187,587.126,505.188,587.126z"/>
						<path d="M507.912,572.483l-3.545-0.258c0,0-0.044,0.591-0.111,1.478c-0.08,0.886-0.254,2.06-0.396,3.237
							c-0.185,1.171-0.411,2.335-0.562,3.212c-0.196,0.867-0.327,1.445-0.327,1.445l3.465,0.787c0,0,0.139-0.61,0.346-1.527
							c0.16-0.926,0.398-2.156,0.594-3.394c0.15-1.243,0.332-2.483,0.417-3.419C507.864,573.108,507.912,572.483,507.912,572.483z"
							/>
					</g>
				</g>
			</g>
		</g>
	</g>
	<g display="inline">
		<g>
			<g>
				<g>
					<g>
						<rect x="375.055" y="315.486" width="3.554" height="8.061"/>
						<rect x="375.055" y="327.491" width="3.554" height="8.061"/>
						<rect x="375.055" y="339.494" width="3.554" height="8.061"/>
						<rect x="375.055" y="351.501" width="3.554" height="8.059"/>
						<rect x="375.055" y="363.504" width="3.554" height="8.061"/>
						<rect x="375.055" y="375.511" width="3.554" height="8.06"/>
						<rect x="375.055" y="387.513" width="3.554" height="8.059"/>
					</g>
				</g>
				<g>
					<g>
						<rect x="375.055" y="399.519" width="3.554" height="8.061"/>
						<rect x="375.055" y="411.522" width="3.554" height="8.062"/>
						<rect x="375.055" y="423.526" width="3.554" height="8.061"/>
						<rect x="375.055" y="435.533" width="3.554" height="8.059"/>
						<rect x="375.055" y="447.536" width="3.554" height="8.061"/>
						<rect x="375.055" y="459.543" width="3.554" height="8.06"/>
						<rect x="375.055" y="471.546" width="3.554" height="8.059"/>
					</g>
				</g>
				<g>
					<g>
						<rect x="375.055" y="483.551" width="3.554" height="8.061"/>
						<rect x="375.055" y="495.555" width="3.554" height="8.062"/>
						<rect x="375.055" y="507.559" width="3.554" height="8.061"/>
						<rect x="375.055" y="519.565" width="3.554" height="8.06"/>
						<rect x="375.055" y="531.568" width="3.554" height="8.061"/>
						<rect x="375.055" y="543.575" width="3.554" height="8.06"/>
						<rect x="375.055" y="555.578" width="3.554" height="8.059"/>
					</g>
				</g>
			</g>
		</g>
	</g>
</g>
<g id="Eyebrows" clip-path="url(#SVGID_2_)">
	<polygon stroke="#000000" stroke-miterlimit="10" points="391.07,252.572 389.396,262.657 342.806,266.657 341.343,262.525 	"/>
	<polygon stroke="#000000" stroke-miterlimit="10" points="432.873,252.572 434.548,262.657 481.138,266.657 482.601,262.525 	"/>
	<polygon display="none" stroke="#000000" stroke-miterlimit="10" points="389.357,252.572 387.466,262.657 334.829,266.657 
		333.176,262.525 	"/>
	<polygon display="none" stroke="#000000" stroke-miterlimit="10" points="434.586,252.572 436.479,262.657 489.115,266.657 
		490.768,262.525 	"/>
</g>
<g id="Haircut" clip-path="url(#SVGID_2_)">
	<polygon stroke="#000000" stroke-miterlimit="10" points="431.087,193.2 368.751,210.276 391.844,193.607 	"/>
	<polygon stroke="#000000" stroke-miterlimit="10" points="507.43,209.704 427.943,209.405 459.479,197.439 	"/>
	<polygon stroke="#000000" stroke-miterlimit="10" points="479.763,199.371 406.276,197.072 447.514,187.105 	"/>
</g>
</svg>
